<svg width="21" height="22" viewBox="0 0 21 22" fill="none" xmlns="http://www.w3.org/2000/svg">
<g clip-path="url(#clip0_0_331)">
<mask id="mask0_0_331" style="mask-type:luminance" maskUnits="userSpaceOnUse" x="0" y="0" width="21" height="22">
<path d="M0 0.890625H21V21.8906H0V0.890625Z" fill="white"/>
</mask>
<g mask="url(#mask0_0_331)">
<path d="M0.55079 2.04438C0.744442 1.97346 0.960693 1.93647 1.16718 1.93389C2.08972 1.92259 3.01225 1.92876 3.93479 1.92876H4.1947V0.890625H16.7958V1.92876H17.0609C17.9834 1.92876 18.906 1.92721 19.8285 1.92927C20.6247 1.93133 20.9981 2.30444 20.9991 3.09588C20.9996 3.85494 20.9996 4.61402 20.9991 5.37308C20.9971 7.84712 19.4011 9.75891 16.9684 10.1927C16.8246 10.2178 16.7969 10.2857 16.7943 10.4106C16.7794 11.2174 16.6412 12.0017 16.3248 12.7463C15.5148 14.6535 14.1109 15.8916 12.1215 16.4646C12.044 16.4872 11.9659 16.5067 11.8662 16.534C12.1123 17.274 12.3527 17.9976 12.5977 18.7346C13.1971 18.7346 13.7909 18.7346 14.3847 18.7351C14.5897 18.7351 14.7951 18.7253 14.9996 18.7377C15.4408 18.7644 15.7731 18.9695 15.9267 19.394C16.2149 20.1895 16.4871 20.9912 16.7645 21.7909C16.7753 21.8212 16.7717 21.8572 16.7748 21.8906H4.22398C4.27483 21.722 4.32055 21.5519 4.37756 21.3854C4.59484 20.7533 4.8152 20.1217 5.03556 19.4906C5.21432 18.9777 5.55333 18.7361 6.09987 18.7351C6.78971 18.7336 7.47956 18.7346 8.16941 18.7346H8.40107C8.64506 18.0002 8.88596 17.2766 9.12174 16.5663C8.68307 16.4019 8.24903 16.2765 7.84734 16.0827C5.98224 15.1854 4.81315 13.7166 4.3565 11.6974C4.26096 11.2739 4.24401 10.832 4.206 10.3977C4.19419 10.2615 4.1495 10.2143 4.018 10.1916C1.88528 9.83138 0.342758 8.23358 0.0386715 6.07972C0.0314808 6.0273 0.0129891 5.97591 -0.000366211 5.92451V2.76389C0.0972309 2.45758 0.226671 2.16258 0.55079 2.04438ZM16.8169 8.10562C17.2879 7.98742 17.6834 7.7541 18.024 7.43289C18.6265 6.86398 18.9178 6.15989 18.9039 5.32836C18.8967 4.90644 18.9024 4.48398 18.9024 4.03944H16.8169V8.10562ZM7.49548 7.3743C7.93312 7.95966 8.36871 8.54708 8.81251 9.12782C8.89675 9.23779 8.91473 9.33441 8.88083 9.46597C8.72005 10.0863 8.56852 10.7086 8.40056 11.3824C9.06318 11.0175 9.68676 10.6804 10.3037 10.3309C10.4434 10.2518 10.5497 10.2477 10.692 10.3289C11.3084 10.6788 11.9325 11.0159 12.5946 11.3803C12.5021 11.0016 12.42 10.6619 12.3362 10.3232C12.2654 10.038 12.1991 9.75171 12.119 9.46957C12.0815 9.33852 12.1 9.24139 12.1842 9.13142C12.6275 8.55017 13.0631 7.96275 13.5007 7.37739C13.5397 7.32497 13.5747 7.26946 13.6327 7.18313H13.0528C12.5813 7.18313 12.1097 7.17746 11.6387 7.1862C11.4949 7.18878 11.4209 7.14509 11.3628 7.01095C11.1194 6.44666 10.8636 5.88804 10.6119 5.32786C10.5821 5.26207 10.5472 5.19834 10.4999 5.10429C10.4532 5.19681 10.4182 5.25899 10.3889 5.32425C10.1367 5.88444 9.88144 6.44358 9.63694 7.00684C9.58043 7.13841 9.51109 7.18878 9.36418 7.18672C8.78323 7.17746 8.2028 7.18313 7.62185 7.18313H7.36707C7.42306 7.26689 7.45645 7.32239 7.49548 7.3743ZM2.41692 6.7391C2.76107 7.37122 3.25624 7.82399 3.94146 8.05885C4.01132 8.08249 4.08529 8.09379 4.17878 8.11589V4.04202H2.09331C2.13492 4.9568 1.95103 5.8829 2.41692 6.7391Z" fill="#3D5EE1"/>
</g>
</g>
<defs>
<clipPath id="clip0_0_331">
<rect width="21" height="21" fill="white" transform="translate(0 0.890625)"/>
</clipPath>
</defs>
</svg>
