<svg width="23" height="23" viewBox="0 0 23 23" fill="none" xmlns="http://www.w3.org/2000/svg">
<g clip-path="url(#clip0_0_345)">
<mask id="mask0_0_345" style="mask-type:luminance" maskUnits="userSpaceOnUse" x="0" y="0" width="23" height="23">
<path d="M0.5 0.390625H22.5V22.3906H0.5V0.390625Z" fill="white"/>
</mask>
<g mask="url(#mask0_0_345)">
<path d="M3.54621 3.38463C4.39406 2.57381 4.8919 1.57731 5.07137 0.408203H17.8998C18.4279 2.93075 19.9531 4.38319 22.4856 4.79788V17.9889C19.9482 18.4009 18.4265 19.8574 17.8991 22.3772H5.09407C4.56528 19.854 3.03943 18.4022 0.506897 17.9875V4.77245C1.67861 4.64866 2.69768 4.19614 3.54621 3.38463ZM3.56959 17.2214C3.57165 18.2523 4.15477 19.0322 5.09269 19.2564C5.29073 19.3031 5.50114 19.3176 5.70606 19.3176C9.5664 19.321 13.4268 19.321 17.2878 19.3197C18.5874 19.319 19.4222 18.4896 19.4229 17.1953C19.4256 13.2485 19.4256 9.30243 19.4229 5.35632C19.4215 4.07854 18.5799 3.2464 17.2995 3.2464C13.4302 3.24502 9.56159 3.24502 5.6923 3.2464C4.41194 3.2464 3.57234 4.07786 3.56959 5.35701C3.56547 7.33419 3.56822 9.31204 3.56822 11.2892C3.56822 13.2671 3.56547 15.2443 3.56959 17.2214Z" fill="#70C4CF"/>
<path d="M18.8486 0.39301C18.9869 2.04215 20.6193 3.76075 22.4979 3.85496V3.55169C22.4979 2.87223 22.5034 2.19275 22.4958 1.51399C22.4883 0.846901 22.042 0.400574 21.3743 0.394385C20.5333 0.38682 19.6917 0.39301 18.8486 0.39301Z" fill="#70C4CF"/>
<path d="M18.8336 22.3521C18.8453 22.3631 18.8576 22.383 18.87 22.383C19.755 22.3851 20.6407 22.3995 21.525 22.3803C21.9836 22.3707 22.4429 21.9869 22.4649 21.5323C22.5083 20.6686 22.478 19.8014 22.478 18.9355C21.0264 18.9747 19.1403 20.2841 18.8336 22.3521Z" fill="#70C4CF"/>
<path d="M0.511032 3.84958C2.0135 3.80419 3.86322 2.45351 4.16509 0.392433C3.58061 0.392433 3.01469 0.391745 2.44877 0.392433C2.1304 0.393121 1.81202 0.38418 1.49434 0.400686C1.01094 0.425443 0.543351 0.804374 0.522034 1.27821C0.48284 2.13303 0.511032 2.992 0.511032 3.84958Z" fill="#70C4CF"/>
<path d="M0.513778 21.4696C0.52753 21.9008 0.91879 22.343 1.35268 22.3616C2.28579 22.4022 3.22165 22.374 4.15683 22.374C3.92647 20.5735 2.28579 19.0482 0.506213 18.9258C0.506213 19.7882 0.487648 20.6299 0.513778 21.4696Z" fill="#70C4CF"/>
<path d="M5.73769 4.125H17.2383C18.1253 4.125 18.5413 4.54381 18.5413 5.43991C18.542 7.38201 18.5413 9.32481 18.5413 11.2669C18.5413 13.2351 18.5427 15.2034 18.5413 17.1716C18.5406 18.0134 18.1143 18.437 17.2678 18.437C13.4171 18.4377 9.56641 18.4377 5.71637 18.437C4.87609 18.437 4.45114 18.0086 4.45114 17.1627C4.45045 13.2434 4.45045 9.32481 4.45114 5.40552C4.45114 4.54932 4.87884 4.125 5.73769 4.125ZM11.348 16.8952C14.3282 17.0196 16.8752 14.6119 16.9983 11.553C17.12 8.55113 14.7188 6.01209 11.6444 5.88967C8.6553 5.77138 6.12689 8.16119 5.99418 11.2304C5.8649 14.2248 8.26679 16.7659 11.348 16.8952Z" fill="#70C4CF"/>
<path d="M6.87161 11.4007C6.88055 13.9514 8.96338 16.027 11.5048 16.018C14.0546 16.0084 16.1285 13.9267 16.1209 11.3842C16.1126 8.83418 14.0298 6.75935 11.4876 6.7676C8.93725 6.77654 6.86268 8.85825 6.87161 11.4007Z" fill="#70C4CF"/>
</g>
</g>
<defs>
<clipPath id="clip0_0_345">
<rect width="22" height="22" fill="white" transform="translate(0.5 0.390625)"/>
</clipPath>
</defs>
</svg>
