<svg width="27" height="31" viewBox="0 0 27 31" fill="none" xmlns="http://www.w3.org/2000/svg">
<path d="M16.3969 7.7032C16.5058 7.85218 16.5975 8.00576 16.5095 8.20018C16.4178 8.40208 16.2418 8.41704 16.0599 8.41646C15.3926 8.41531 14.7257 8.41589 14.0583 8.41589H13.8507V9.35866H13.1645C13.1613 9.30286 13.1549 9.24822 13.1549 9.19357C13.1543 8.20881 13.1565 7.22347 13.1527 6.23871C13.1522 6.00805 13.2214 5.83663 13.4301 5.74805H16.3116C16.597 5.97411 16.6174 6.1392 16.3969 6.45096C16.2525 6.65574 16.1072 6.85994 15.9521 7.07852C16.1007 7.28789 16.2461 7.49785 16.3969 7.7032Z" fill="#3D5EE1"/>
<path d="M16.707 15.3576C16.707 15.2673 16.656 15.1506 16.5921 15.0913C15.5766 14.152 14.5556 13.2196 13.5352 12.2866C13.5057 12.2596 13.4725 12.2377 13.4397 12.213C13.3952 12.2521 13.3587 12.2826 13.3233 12.3148C12.3147 13.234 11.3077 14.1549 10.2965 15.0706C10.1983 15.1592 10.1564 15.2455 10.1564 15.3864C10.1607 18.5328 10.1597 21.6787 10.1597 24.8251V25.0287H11.6607V21.3657C11.6613 20.955 11.7519 20.8596 12.1409 20.8596H14.759C15.1742 20.8596 15.2568 20.947 15.2568 21.3836V25.035H16.7037C16.707 24.9631 16.7112 24.9079 16.7112 24.8527C16.7118 21.6873 16.7129 18.5225 16.707 15.3576ZM14.899 18.7894C14.4194 18.7951 13.9403 18.7911 13.4607 18.7911C13.0046 18.7911 12.5486 18.7917 12.0921 18.7911C12.0341 18.7911 11.9746 18.7922 11.9172 18.7825C11.7428 18.7526 11.628 18.6001 11.6339 18.4126C11.6393 18.2337 11.7557 18.0888 11.9263 18.0721C12.0712 18.0583 12.2182 18.0634 12.3641 18.0634C13.1946 18.0629 14.025 18.0646 14.855 18.0617C15.0342 18.0611 15.1839 18.1095 15.2509 18.3022C15.3389 18.5524 15.1721 18.7859 14.899 18.7894Z" fill="#3D5EE1"/>
<path d="M21.8561 17.9362C21.8556 17.5352 21.6507 17.3218 21.2762 17.3195C20.8078 17.3172 20.3395 17.319 19.8711 17.319H17.4124V25.0262H21.8502C21.8529 24.9779 21.8567 24.9411 21.8567 24.9049C21.8572 22.5821 21.8583 20.2589 21.8561 17.9362ZM19.1533 23.0113C19.1388 23.2281 19.0026 23.3748 18.8228 23.3811C18.6447 23.3869 18.4891 23.2471 18.4773 23.0331C18.4629 22.7582 18.4623 22.4815 18.4795 22.2071C18.4929 21.9845 18.6388 21.8608 18.8282 21.8689C19.0058 21.8769 19.1302 22.0115 19.1539 22.2215C19.1549 22.2341 19.1555 22.2468 19.1555 22.2589C19.156 22.3843 19.1555 22.5097 19.1555 22.6351C19.1555 22.6351 19.1549 22.6351 19.1544 22.6351C19.1544 22.7605 19.1614 22.8864 19.1533 23.0113ZM19.1549 19.9137C19.1437 20.1467 19.0149 20.2951 18.8255 20.302C18.6329 20.3095 18.4865 20.1737 18.4741 19.9419C18.4602 19.6796 18.4612 19.415 18.4752 19.1527C18.487 18.9272 18.6437 18.7794 18.8255 18.788C19.0111 18.7973 19.1437 18.9514 19.1544 19.1803C19.1603 19.3057 19.1555 19.4311 19.1555 19.5565C19.156 19.6756 19.1603 19.7952 19.1549 19.9137ZM20.8647 23.0205C20.8524 23.239 20.7054 23.38 20.5273 23.3811C20.3427 23.3817 20.1989 23.2304 20.1834 23.0055C20.1743 22.8744 20.1818 22.7421 20.1818 22.6103C20.1818 22.4913 20.1753 22.3716 20.1823 22.2531C20.1963 22.0202 20.3261 21.8741 20.5155 21.8689C20.7086 21.8631 20.8535 21.9983 20.8658 22.2313C20.8797 22.4936 20.8792 22.7582 20.8647 23.0205ZM20.8475 20.0253C20.8191 20.2013 20.7016 20.2911 20.538 20.3009C20.3749 20.3106 20.2204 20.2094 20.2086 20.0322C20.1861 19.7095 20.1877 19.3828 20.2086 19.0601C20.2204 18.8835 20.3626 18.8001 20.523 18.7898C20.6759 18.7794 20.8105 18.9019 20.8508 19.0711C20.8583 19.1015 20.8679 19.132 20.8685 19.1631C20.8706 19.2948 20.8695 19.4265 20.8695 19.5577C20.8733 19.5583 20.8776 19.5583 20.8813 19.5588C20.8712 19.7141 20.8722 19.8723 20.8475 20.0253Z" fill="#3D5EE1"/>
<path d="M5.78888 17.3203C5.32481 17.3209 5.14294 17.517 5.14294 18.0186V25.0293H9.45524V17.3203H5.78888ZM6.77011 23.0189C6.75777 23.2444 6.60219 23.3899 6.41818 23.3819C6.23255 23.3738 6.10004 23.2202 6.08877 22.9907C6.08233 22.8653 6.0877 22.7399 6.0877 22.6145C6.0877 22.4955 6.08234 22.3758 6.08824 22.2573C6.10004 22.0249 6.23041 21.8765 6.41871 21.8702C6.61239 21.8633 6.75777 21.9973 6.77011 22.2297C6.7846 22.492 6.78406 22.7566 6.77011 23.0189ZM6.75616 20.0123C6.72988 20.1935 6.60326 20.2987 6.44017 20.3028C6.27762 20.3074 6.12418 20.2073 6.11238 20.0301C6.09146 19.7074 6.09253 19.3801 6.11506 19.0574C6.12794 18.8826 6.27118 18.7992 6.43213 18.7911C6.58556 18.7831 6.7288 18.905 6.75455 19.0764C6.77816 19.23 6.77655 19.3876 6.78621 19.5389C6.77709 19.7011 6.77923 19.8587 6.75616 20.0123ZM7.84631 19.1696C7.85972 18.9441 8.00082 18.7905 8.18644 18.7894C8.36402 18.7882 8.51263 18.9292 8.52389 19.1477C8.53838 19.4164 8.53838 19.6873 8.52336 19.9553C8.51048 20.1779 8.3667 20.3074 8.18054 20.3039C7.99706 20.3005 7.8624 20.1595 7.84738 19.9404C7.83826 19.8092 7.84577 19.6775 7.84577 19.5458C7.84577 19.4204 7.8388 19.2944 7.84631 19.1696ZM8.5255 23.0189C8.5137 23.2444 8.35812 23.3899 8.1741 23.3819C7.9874 23.3738 7.8565 23.2214 7.84577 22.9907C7.83987 22.8653 7.8447 22.7399 7.8447 22.6145C7.8447 22.4955 7.83987 22.3758 7.84577 22.2573C7.85704 22.0238 7.98472 21.8765 8.17518 21.8702C8.36885 21.8633 8.5137 21.9973 8.52604 22.2297C8.53999 22.492 8.53945 22.7566 8.5255 23.0189Z" fill="#3D5EE1"/>
<path d="M18.3637 14.3729C18.1523 14.6318 17.9489 14.8808 17.7344 15.1437C17.6855 15.1029 17.6405 15.0672 17.5981 15.0286C16.3255 13.8615 15.0535 12.6944 13.7815 11.5268C13.524 11.2903 13.4022 11.2892 13.1399 11.5291C11.8915 12.6686 10.6441 13.8086 9.39626 14.9487C9.32973 15.0097 9.26214 15.0701 9.1763 15.1477C8.97297 14.894 8.77286 14.6444 8.55719 14.3758C10.194 12.8728 11.8233 11.3772 13.4618 9.87305C15.0981 11.3755 16.7247 12.8682 18.3637 14.3729Z" fill="#3D5EE1"/>
<path d="M14.5589 21.6074H12.3544V25.0282H14.5589V21.6074Z" fill="#3D5EE1"/>
</svg>
