<svg width="17" height="24" viewBox="0 0 17 24" fill="none" xmlns="http://www.w3.org/2000/svg">
<g clip-path="url(#clip0_0_380)">
<mask id="mask0_0_380" style="mask-type:luminance" maskUnits="userSpaceOnUse" x="0" y="0" width="17" height="24">
<path d="M16.5 0.890625H0.5V23.8906H16.5V0.890625Z" fill="white"/>
</mask>
<g mask="url(#mask0_0_380)">
<path d="M5.98438 23.873C5.98828 23.8786 5.9922 23.8843 5.99667 23.8899C5.99946 23.8843 6.0017 23.8786 6.00449 23.873H5.98438Z" fill="white"/>
<path d="M15.4164 9.5344C15.36 9.40949 15.3527 9.30541 15.4136 9.1777C15.5807 8.82774 15.7333 8.47102 15.8909 8.11599C16.0932 7.66082 16.2943 7.20566 16.4994 6.74261C16.4229 6.69535 16.3608 6.65595 16.2971 6.61882C15.5952 6.21259 14.8906 5.81087 14.1937 5.39566C14.106 5.34333 14.0232 5.22968 13.9992 5.12953C13.8919 4.67942 13.8081 4.22369 13.7131 3.77076C13.6248 3.34991 13.5331 2.92962 13.4426 2.50595C12.5446 2.6016 11.6722 2.68938 10.8021 2.79234C10.6579 2.80922 10.5669 2.77264 10.4668 2.68037C9.87445 2.13461 9.27706 1.59392 8.68134 1.0521C8.62266 0.998651 8.56119 0.947451 8.49581 0.890625C8.41422 0.96433 8.34828 1.02341 8.28289 1.08361C7.6922 1.62036 7.10375 2.15936 6.50915 2.69106C6.44544 2.74788 6.34206 2.79852 6.26215 2.79177C5.81787 2.75463 5.37528 2.69782 4.93156 2.65056C4.47555 2.60161 4.01954 2.55546 3.55347 2.50707C3.41879 3.14567 3.28859 3.76626 3.15614 4.38629C3.09076 4.69236 3.0997 5.05525 2.93149 5.28762C2.76328 5.51999 2.41792 5.62352 2.14856 5.7805C1.60258 6.09783 1.05604 6.41347 0.5 6.73528C0.534089 6.8163 0.561472 6.88439 0.59109 6.95078C0.915214 7.68052 1.23599 8.41194 1.56849 9.13774C1.64058 9.29529 1.63499 9.42243 1.56402 9.57716C1.22872 10.3097 0.904038 11.0479 0.577119 11.7844C0.550854 11.8429 0.531295 11.9048 0.50503 11.9745C1.27063 12.4168 2.02227 12.8551 2.77837 13.2843C2.91249 13.3603 2.98234 13.4509 3.01364 13.6062C3.18464 14.4631 3.36738 15.3177 3.54956 16.1898C3.60265 16.1898 3.65295 16.1943 3.70212 16.1892C4.44146 16.1088 5.18192 16.039 5.91846 15.94C6.23197 15.8978 6.49742 15.9096 6.7081 16.1842C6.79304 16.295 6.91375 16.3777 7.01881 16.4734C7.50835 16.9184 7.99845 17.364 8.49469 17.8153C8.56231 17.7573 8.61875 17.7106 8.67296 17.6611C9.27482 17.1142 9.8739 16.5651 10.4791 16.0233C10.5434 15.9653 10.6451 15.9107 10.725 15.9169C11.1324 15.9467 11.5387 15.9968 11.9449 16.0401C12.4389 16.093 12.933 16.1465 13.4376 16.2011C13.4566 16.1313 13.475 16.0756 13.4873 16.0182C13.6539 15.2215 13.826 14.4259 13.9808 13.6264C14.0143 13.4526 14.0937 13.3558 14.2406 13.2731C14.9336 12.8804 15.621 12.4787 16.31 12.0797C16.3726 12.0437 16.4329 12.0032 16.5 11.9616C16.1351 11.1413 15.7791 10.3362 15.4164 9.5344ZM8.47849 14.6262C5.58931 14.6088 3.22879 12.2182 3.25841 9.33805C3.28747 6.41572 5.63178 4.06727 8.50866 4.07739C11.3939 4.08808 13.7477 6.46297 13.7405 9.35717C13.7332 12.2716 11.3643 14.6437 8.47849 14.6262Z" fill="#70C4CF"/>
<path d="M8.13983 19.3122C7.43458 20.82 6.73269 22.3195 6.00452 23.874C6.00173 23.8797 5.9995 23.8853 5.9967 23.8909C5.99223 23.8853 5.98832 23.8797 5.98441 23.874C5.92573 23.7936 5.88829 23.7373 5.8447 23.6855C5.32107 23.0633 4.79185 22.4455 4.27493 21.8176C4.16819 21.6887 4.05866 21.6409 3.89604 21.6404C3.10026 21.6392 2.30448 21.6274 1.5087 21.6179C1.4299 21.6167 1.35167 21.6089 1.24884 21.6027C1.28014 21.5183 1.29858 21.4558 1.32596 21.3979C1.88815 20.1944 2.45369 18.9926 3.01085 17.7869C3.07623 17.6451 3.15726 17.5961 3.31038 17.5809C4.07207 17.5072 4.83321 17.4257 5.59322 17.3311C5.8229 17.3024 5.99447 17.3396 6.17162 17.5084C6.73269 18.044 7.31443 18.5577 7.88724 19.0798C7.96995 19.1546 8.05098 19.2306 8.13983 19.3122Z" fill="#70C4CF"/>
<path d="M15.7556 21.6408C14.9106 21.6408 14.1076 21.6537 13.3057 21.6346C12.9955 21.6267 12.7888 21.7196 12.5915 21.9677C12.0869 22.6046 11.5493 23.2151 10.9932 23.8728C10.2746 22.3379 9.56875 20.8312 8.85791 19.3126C9.38098 18.8355 9.8979 18.3635 10.4154 17.892C10.4595 17.8515 10.5121 17.8177 10.5467 17.771C10.8708 17.3316 11.2939 17.2798 11.803 17.3681C12.4389 17.4784 13.0872 17.5144 13.7293 17.5938C13.8081 17.6033 13.9159 17.663 13.9472 17.7294C14.5401 18.9762 15.1236 20.2275 15.7081 21.4776C15.7226 21.5092 15.7277 21.5452 15.7556 21.6408Z" fill="#70C4CF"/>
<path d="M12.401 9.36344C12.3859 11.5464 10.6244 13.2991 8.46622 13.2782C6.32253 13.2585 4.5812 11.4868 4.59685 9.34206C4.61305 7.17028 6.36612 5.41486 8.50981 5.42386C10.6591 5.43342 12.4161 7.21192 12.401 9.36344Z" fill="#70C4CF"/>
</g>
</g>
<defs>
<clipPath id="clip0_0_380">
<rect width="16" height="23" fill="white" transform="translate(0.5 0.890625)"/>
</clipPath>
</defs>
</svg>
