<svg width="34" height="34" viewBox="0 0 34 34" fill="none" xmlns="http://www.w3.org/2000/svg">
<g clip-path="url(#clip0_0_402)">
<path d="M27.25 0.890625H6.25C2.93629 0.890625 0.25 3.57692 0.25 6.89062V27.8906C0.25 31.2043 2.93629 33.8906 6.25 33.8906H27.25C30.5637 33.8906 33.25 31.2043 33.25 27.8906V6.89062C33.25 3.57692 30.5637 0.890625 27.25 0.890625Z" fill="#1877F2"/>
<path d="M23.1728 22.1601L23.9043 17.3906H19.3281V14.2968C19.3281 12.9917 19.9662 11.7187 22.0158 11.7187H24.0977V7.65821C24.0977 7.65821 22.2092 7.33594 20.4045 7.33594C16.634 7.33594 14.1719 9.62081 14.1719 13.7554V17.3906H9.98242V22.1601H14.1719V33.6908C15.013 33.8229 15.8734 33.8906 16.75 33.8906C17.6266 33.8906 18.487 33.8229 19.3281 33.6908V22.1601H23.1728Z" fill="white"/>
</g>
<defs>
<clipPath id="clip0_0_402">
<rect width="33" height="33" fill="white" transform="translate(0.25 0.890625)"/>
</clipPath>
</defs>
</svg>
