<svg width="34" height="34" viewBox="0 0 34 34" fill="none" xmlns="http://www.w3.org/2000/svg">
<g clip-path="url(#clip0_0_411)">
<path d="M27.5 0.890625H6.5C3.18629 0.890625 0.5 3.57692 0.5 6.89062V27.8906C0.5 31.2043 3.18629 33.8906 6.5 33.8906H27.5C30.8137 33.8906 33.5 31.2043 33.5 27.8906V6.89062C33.5 3.57692 30.8137 0.890625 27.5 0.890625Z" fill="#1D9BF0"/>
<path d="M13.9805 26.0934C21.2983 26.0934 25.2995 20.0297 25.2995 14.7744C25.2995 14.6012 25.2995 14.4279 25.2913 14.2629C26.0668 13.7019 26.7433 13.0007 27.2795 12.2004C26.57 12.5139 25.8028 12.7284 24.9943 12.8274C25.8193 12.3324 26.4463 11.5569 26.7433 10.6247C25.976 11.0784 25.1263 11.4084 24.2188 11.5899C23.4928 10.8144 22.4615 10.3359 21.3148 10.3359C19.1203 10.3359 17.3383 12.1179 17.3383 14.3124C17.3383 14.6259 17.3713 14.9312 17.4455 15.2199C14.1373 15.0549 11.2085 13.4709 9.24502 11.0619C8.90677 11.6477 8.70877 12.3324 8.70877 13.0584C8.70877 14.4362 9.41002 15.6572 10.4825 16.3667C9.83077 16.3502 9.22027 16.1687 8.68402 15.8717C8.68402 15.8882 8.68402 15.9047 8.68402 15.9212C8.68402 17.8517 10.0535 19.4522 11.8768 19.8234C11.5468 19.9142 11.192 19.9637 10.829 19.9637C10.5733 19.9637 10.3258 19.9389 10.0783 19.8894C10.5815 21.4734 12.05 22.6202 13.7908 22.6532C12.4295 23.7174 10.7135 24.3527 8.84902 24.3527C8.52727 24.3527 8.21377 24.3362 7.90027 24.2949C9.64102 25.4334 11.7365 26.0934 13.9805 26.0934Z" fill="white"/>
</g>
<defs>
<clipPath id="clip0_0_411">
<rect width="33" height="33" fill="white" transform="translate(0.5 0.890625)"/>
</clipPath>
</defs>
</svg>
