<svg width="34" height="34" viewBox="0 0 34 34" fill="none" xmlns="http://www.w3.org/2000/svg">
<g clip-path="url(#clip0_0_420)">
<path d="M9.11794 33.7739C7.15542 33.6846 6.08932 33.358 5.38022 33.0815C4.44064 32.7156 3.77077 32.2802 3.0656 31.576C2.36043 30.8718 1.92398 30.2019 1.56012 29.2623C1.28354 28.5532 0.956943 27.4871 0.867693 25.5246C0.769615 23.4032 0.75 22.7667 0.75 17.3921C0.75 12.0174 0.771577 11.3819 0.866712 9.25856C0.955962 7.29604 1.28452 6.2319 1.55914 5.52084C1.92496 4.58126 2.36141 3.9114 3.06462 3.20525C3.76881 2.50106 4.43868 2.06362 5.37924 1.69976C6.08834 1.42318 7.15443 1.09659 9.11696 1.00734C11.2393 0.91024 11.8768 0.890625 17.2495 0.890625C22.6241 0.890625 23.2597 0.912202 25.383 1.00734C27.3456 1.09659 28.4097 1.42514 29.1208 1.69976C30.0603 2.06362 30.7302 2.50106 31.4354 3.20525C32.1406 3.90944 32.575 4.58029 32.9409 5.51987C33.2174 6.22896 33.544 7.29505 33.6333 9.25758C33.7304 11.3809 33.75 12.0165 33.75 17.3911C33.75 22.7638 33.7304 23.4013 33.6333 25.5246C33.544 27.4871 33.2155 28.5532 32.9409 29.2623C32.575 30.2019 32.1396 30.8718 31.4354 31.576C30.7312 32.2802 30.0603 32.7156 29.1208 33.0815C28.4117 33.358 27.3456 33.6846 25.383 33.7739C23.2616 33.871 22.6241 33.8906 17.2495 33.8906C11.8768 33.8906 11.2393 33.872 9.11794 33.7739Z" fill="url(#paint0_radial_0_420)"/>
<path d="M9.11794 33.7739C7.15542 33.6846 6.08932 33.358 5.38022 33.0815C4.44064 32.7156 3.77077 32.2802 3.0656 31.576C2.36043 30.8718 1.92398 30.2019 1.56012 29.2623C1.28354 28.5532 0.956943 27.4871 0.867693 25.5246C0.769615 23.4032 0.75 22.7667 0.75 17.3921C0.75 12.0174 0.771577 11.3819 0.866712 9.25856C0.955962 7.29604 1.28452 6.2319 1.55914 5.52084C1.92496 4.58126 2.36141 3.9114 3.06462 3.20525C3.76881 2.50106 4.43868 2.06362 5.37924 1.69976C6.08834 1.42318 7.15443 1.09659 9.11696 1.00734C11.2393 0.91024 11.8768 0.890625 17.2495 0.890625C22.6241 0.890625 23.2597 0.912202 25.383 1.00734C27.3456 1.09659 28.4097 1.42514 29.1208 1.69976C30.0603 2.06362 30.7302 2.50106 31.4354 3.20525C32.1406 3.90944 32.575 4.58029 32.9409 5.51987C33.2174 6.22896 33.544 7.29505 33.6333 9.25758C33.7304 11.3809 33.75 12.0165 33.75 17.3911C33.75 22.7638 33.7304 23.4013 33.6333 25.5246C33.544 27.4871 33.2155 28.5532 32.9409 29.2623C32.575 30.2019 32.1396 30.8718 31.4354 31.576C30.7312 32.2802 30.0603 32.7156 29.1208 33.0815C28.4117 33.358 27.3456 33.6846 25.383 33.7739C23.2616 33.871 22.6241 33.8906 17.2495 33.8906C11.8768 33.8906 11.2393 33.872 9.11794 33.7739Z" fill="url(#paint1_radial_0_420)"/>
<path d="M13.506 17.2737C13.506 15.2703 15.1297 13.6457 17.1331 13.6457C19.1366 13.6457 20.7611 15.2703 20.7611 17.2737C20.7611 19.2772 19.1366 20.9017 17.1331 20.9017C15.1297 20.9017 13.506 19.2772 13.506 17.2737ZM11.5448 17.2737C11.5448 20.3602 14.0467 22.8621 17.1331 22.8621C20.2196 22.8621 22.7215 20.3602 22.7215 17.2737C22.7215 14.1873 20.2196 11.6854 17.1331 11.6854C14.0467 11.6854 11.5448 14.1871 11.5448 17.2737ZM21.6368 11.4638C21.6367 11.7221 21.7132 11.9746 21.8566 12.1894C22 12.4043 22.2039 12.5717 22.4425 12.6707C22.6811 12.7696 22.9437 12.7956 23.1971 12.7453C23.4504 12.695 23.6832 12.5707 23.8659 12.3881C24.0486 12.2056 24.1731 11.9729 24.2236 11.7196C24.2741 11.4663 24.2483 11.2037 24.1496 10.965C24.0508 10.7264 23.8835 10.5223 23.6688 10.3787C23.4541 10.2352 23.2016 10.1585 22.9433 10.1584C22.5971 10.1585 22.2646 10.2961 22.0197 10.5409C21.7748 10.7856 21.6371 11.1176 21.6368 11.4638ZM12.7363 26.1324C11.6753 26.0841 11.0986 25.9074 10.7153 25.758C10.2072 25.5602 9.84465 25.3246 9.46348 24.944C9.08231 24.5633 8.84637 24.2011 8.64942 23.693C8.50002 23.3099 8.32328 22.733 8.27504 21.672C8.22228 20.5248 8.21175 20.1802 8.21175 17.2739C8.21175 14.3676 8.22315 14.0239 8.27504 12.8758C8.32337 11.8147 8.50141 11.239 8.64942 10.8548C8.84724 10.3467 9.08283 9.98414 9.46348 9.60297C9.84413 9.2218 10.2063 8.98586 10.7153 8.78892C11.0984 8.63952 11.6753 8.46277 12.7363 8.41454C13.8835 8.36178 14.2281 8.35124 17.1331 8.35124C20.0381 8.35124 20.3831 8.36247 21.5312 8.41471C22.5923 8.46303 23.168 8.64108 23.5523 8.78909C24.0604 8.98603 24.4229 9.2225 24.8041 9.60314C25.1852 9.98379 25.4203 10.3469 25.6181 10.855C25.7675 11.238 25.9443 11.8149 25.9925 12.876C26.0453 14.0241 26.0558 14.3678 26.0558 17.2741C26.0558 20.1804 26.0453 20.524 25.9925 21.6722C25.9442 22.7332 25.7666 23.3099 25.6181 23.6932C25.4203 24.2013 25.1847 24.5639 24.8041 24.9442C24.4234 25.3245 24.0604 25.5604 23.5523 25.7582C23.1692 25.9076 22.5923 26.0844 21.5312 26.1326C20.384 26.1854 20.0394 26.1959 17.1331 26.1959C14.2268 26.1959 13.8832 26.1852 12.7363 26.1324ZM12.6462 6.45653C11.4877 6.50929 10.696 6.69301 10.0046 6.96204C9.289 7.23986 8.68242 7.61259 8.07671 8.21734C7.471 8.82209 7.09923 9.42876 6.82141 10.1452C6.55238 10.837 6.36867 11.6283 6.31591 12.7868C6.26228 13.9472 6.25 14.3182 6.25 17.2737C6.25 20.2292 6.26228 20.6002 6.31591 21.7606C6.36867 22.9193 6.55238 23.7104 6.82141 24.4023C7.09923 25.1178 7.47109 25.7256 8.07671 26.3301C8.68233 26.9346 9.28813 27.3068 10.0046 27.5854C10.6973 27.8545 11.4877 28.0382 12.6462 28.0909C13.8072 28.1437 14.1776 28.1568 17.1331 28.1568C20.0886 28.1568 20.4596 28.1446 21.62 28.0909C22.7787 28.0382 23.5698 27.8545 24.2617 27.5854C24.9772 27.3068 25.5838 26.9349 26.1895 26.3301C26.7952 25.7254 27.1662 25.1178 27.4448 24.4023C27.7139 23.7104 27.8985 22.9192 27.9503 21.7606C28.0031 20.5993 28.0154 20.2292 28.0154 17.2737C28.0154 14.3182 28.0031 13.9472 27.9503 12.7868C27.8976 11.6282 27.7139 10.8366 27.4448 10.1452C27.1662 9.42963 26.7943 8.82305 26.1895 8.21734C25.5848 7.61163 24.9772 7.23986 24.2625 6.96204C23.5698 6.69301 22.7786 6.50842 21.6209 6.45653C20.4603 6.40351 20.0895 6.39062 17.1344 6.39062C14.1794 6.39062 13.8072 6.4029 12.6462 6.45653Z" fill="white"/>
</g>
<defs>
<radialGradient id="paint0_radial_0_420" cx="0" cy="0" r="1" gradientUnits="userSpaceOnUse" gradientTransform="translate(2.88573 33.1677) scale(41.8977)">
<stop offset="0.09" stop-color="#FA8F21"/>
<stop offset="0.78" stop-color="#D82D7E"/>
</radialGradient>
<radialGradient id="paint1_radial_0_420" cx="0" cy="0" r="1" gradientUnits="userSpaceOnUse" gradientTransform="translate(23.6079 32.108) scale(36.8704)">
<stop offset="0.64" stop-color="#8C3AAA" stop-opacity="0"/>
<stop offset="1" stop-color="#8C3AAA"/>
</radialGradient>
<clipPath id="clip0_0_420">
<rect width="33" height="33" fill="white" transform="translate(0.75 0.890625)"/>
</clipPath>
</defs>
</svg>
