<svg width="33" height="34" viewBox="0 0 33 34" fill="none" xmlns="http://www.w3.org/2000/svg">
<g clip-path="url(#clip0_0_430)">
<path d="M27 0.890625H6C2.68629 0.890625 0 3.57692 0 6.89062V27.8906C0 31.2043 2.68629 33.8906 6 33.8906H27C30.3137 33.8906 33 31.2043 33 27.8906V6.89062C33 3.57692 30.3137 0.890625 27 0.890625Z" fill="#0A66C2"/>
<mask id="mask0_0_430" style="mask-type:luminance" maskUnits="userSpaceOnUse" x="6" y="7" width="21" height="21">
<path d="M26.125 7.76562H6.875V27.0156H26.125V7.76562Z" fill="white"/>
</mask>
<g mask="url(#mask0_0_430)">
<path d="M6.875 10.3341C6.875 9.71471 7.09179 9.20373 7.52534 8.80116C7.95889 8.39856 8.52253 8.19727 9.21622 8.19727C9.89753 8.19727 10.4488 8.39546 10.8699 8.79187C11.3035 9.20065 11.5203 9.73329 11.5203 10.3898C11.5203 10.9844 11.3097 11.4799 10.8885 11.8763C10.455 12.2851 9.88514 12.4895 9.17905 12.4895H9.16047C8.47916 12.4895 7.92793 12.2851 7.50676 11.8763C7.08558 11.4675 6.875 10.9534 6.875 10.3341ZM7.11655 26.5925V14.1803H11.2416V26.5925H7.11655ZM13.527 26.5925H17.652V19.6618C17.652 19.2282 17.7016 18.8937 17.8007 18.6584C17.9741 18.2372 18.2373 17.8811 18.5904 17.59C18.9434 17.2989 19.3863 17.1533 19.9189 17.1533C21.3063 17.1533 22 18.0886 22 19.9591V26.5925H26.125V19.476C26.125 17.6426 25.6914 16.2521 24.8243 15.3045C23.9572 14.3569 22.8114 13.8831 21.3868 13.8831C19.7889 13.8831 18.5439 14.5706 17.652 15.9456V15.9827H17.6334L17.652 15.9456V14.1803H13.527C13.5518 14.5767 13.5642 15.8093 13.5642 17.878C13.5642 19.9467 13.5518 22.8515 13.527 26.5925Z" fill="white"/>
</g>
</g>
<defs>
<clipPath id="clip0_0_430">
<rect width="33" height="33" fill="white" transform="translate(0 0.890625)"/>
</clipPath>
</defs>
</svg>
